<?xml version="1.0" standalone="no"?>
<!DOCTYPE svg PUBLIC "-//W3C//DTD SVG 20010904//EN"
 "http://www.w3.org/TR/2001/REC-SVG-20010904/DTD/svg10.dtd">
<svg version="1.0" xmlns="http://www.w3.org/2000/svg"
 width="1024.000000pt" height="1024.000000pt" viewBox="0 0 1024.000000 1024.000000"
 preserveAspectRatio="xMidYMid meet">

<g transform="translate(0.000000,1024.000000) scale(0.100000,-0.100000)"
fill="#000000" stroke="none">
<path d="M1 9293 c1 -522 4 -986 8 -1033 6 -58 8 -70 9 -38 2 45 15 69 30 53
4 -4 1 -10 -6 -12 -6 -3 -12 -9 -12 -14 0 -6 4 -8 9 -5 5 4 11 3 14 -1 2 -5 3
-3 1 3 -1 6 4 23 11 37 7 14 11 28 9 30 -3 2 3 10 13 18 9 8 14 9 10 2 -13
-21 10 -23 28 -3 10 11 15 26 11 36 -5 13 -4 14 7 5 21 -16 52 19 34 39 -10
12 -9 12 5 2 11 -9 18 -10 23 -2 9 15 35 -6 35 -29 0 -14 2 -14 10 -1 5 9 5
17 -1 21 -6 3 -4 11 6 19 12 10 15 10 15 -3 0 -30 16 -25 18 6 2 17 13 42 25
56 17 19 18 23 5 18 -11 -4 -15 -2 -12 6 6 17 60 13 56 -3 -3 -11 0 -11 12 0
13 10 16 10 16 -3 0 -21 17 -31 26 -16 5 8 3 9 -6 4 -9 -5 -11 -4 -6 4 5 7 12
9 19 3 14 -10 61 11 49 23 -4 4 0 6 8 3 8 -3 36 6 62 19 36 18 48 30 48 47 0
36 22 54 70 59 65 7 83 12 88 25 2 7 10 12 18 12 8 0 14 4 14 9 0 5 8 8 18 7
13 -1 16 5 14 28 -2 20 1 27 10 23 7 -2 12 -10 10 -16 -1 -7 2 -9 8 -6 8 5 6
13 -4 24 -9 10 -16 20 -16 22 0 7 43 3 63 -6 15 -6 16 -10 5 -24 -7 -9 -3 -7
9 6 23 24 50 32 37 12 -4 -7 -1 -10 7 -7 8 3 13 11 11 17 -1 6 3 10 9 9 6 -2
14 3 17 11 3 9 0 11 -8 6 -9 -5 -11 -4 -6 4 4 6 11 9 16 6 4 -3 10 -1 12 3 1
5 23 15 47 23 25 8 47 21 49 29 4 11 -1 10 -17 -4 -13 -12 -21 -14 -21 -7 0 7
-4 10 -9 6 -5 -3 -9 8 -9 24 1 19 5 28 13 24 7 -2 16 1 21 8 4 8 3 10 -4 5 -7
-4 -12 -1 -12 7 0 10 7 13 19 10 10 -2 24 2 32 10 8 7 20 12 27 9 7 -2 19 2
27 8 13 10 13 16 3 29 -11 14 -11 14 3 4 12 -10 18 -10 28 0 9 9 14 9 21 -3 5
-8 7 -17 4 -21 -7 -12 23 -4 40 10 13 11 14 17 4 30 -12 14 -11 14 5 2 9 -7
17 -10 17 -5 0 5 4 2 10 -6 7 -12 12 -12 29 4 21 19 19 42 -2 29 -7 -3 -3 4 8
17 11 13 15 21 9 17 -6 -4 -19 2 -28 12 -15 17 -15 19 4 36 11 10 17 23 13 29
-3 6 -3 8 2 4 4 -4 14 -3 21 3 8 7 14 7 19 -1 3 -5 2 -10 -3 -10 -6 0 -13 -7
-16 -16 -3 -8 -2 -12 4 -9 6 3 10 -2 10 -12 0 -15 2 -15 9 -4 7 11 13 12 23 3
11 -9 14 -6 14 13 0 14 -3 25 -6 25 -3 0 -11 10 -19 23 -11 18 -7 16 17 -7 17
-16 29 -32 27 -36 -3 -4 3 -14 13 -21 15 -13 16 -12 3 4 -7 9 -9 17 -5 17 5 0
14 8 21 18 9 15 8 19 -3 19 -7 0 -10 -5 -7 -11 4 -6 -1 -5 -10 3 -18 14 -24
26 -8 17 4 -3 16 3 25 13 13 14 14 20 5 23 -7 2 -9 10 -5 17 6 9 11 9 22 0 11
-9 14 -7 14 15 0 21 4 25 24 24 14 -1 22 -6 20 -10 -3 -5 -11 -5 -17 -2 -8 5
-9 4 -2 -4 12 -13 90 -28 82 -15 -3 4 5 8 18 8 22 0 26 -9 12 -32 -5 -8 0 -9
15 -5 20 5 21 3 10 -10 -11 -14 -10 -16 8 -11 11 3 18 8 15 11 -2 3 1 12 8 20
10 13 9 15 -11 10 -19 -5 -21 -4 -11 8 6 7 15 11 20 8 5 -3 9 0 9 7 0 7 9 23
21 35 15 16 17 24 8 29 -7 5 -10 4 -5 -3 3 -6 2 -13 -3 -16 -21 -13 -19 12 2
30 24 21 44 25 39 9 -2 -5 7 0 20 11 13 12 29 19 37 16 9 -3 11 0 7 7 -4 7 -2
18 4 26 8 10 9 15 2 15 -6 0 -16 -9 -22 -20 -6 -11 -18 -20 -28 -20 -12 0 -9
8 16 32 31 31 32 32 46 13 11 -15 12 -24 3 -35 -6 -8 5 0 24 18 19 17 43 32
52 32 11 0 17 8 17 23 0 17 2 19 10 7 7 -11 12 -12 20 -4 9 9 9 14 1 19 -8 4
-6 11 4 21 8 9 15 21 15 27 0 8 -3 9 -8 1 -4 -6 -16 -14 -27 -18 -14 -5 -11 2
13 27 23 24 30 36 20 39 -10 4 -11 8 -1 20 7 8 9 19 5 23 -4 5 -1 5 7 0 24
-14 61 -14 61 0 0 7 -6 16 -12 18 -7 3 -2 6 13 6 14 1 31 7 38 14 11 10 13 9
8 -5 -4 -10 -3 -17 1 -17 20 3 25 -2 12 -12 -10 -7 -11 -9 -2 -7 8 2 12 6 11
8 -7 14 23 49 37 43 8 -3 14 -2 13 3 -4 23 2 45 11 39 6 -4 8 -10 6 -14 -3 -4
1 -8 9 -8 15 0 19 15 17 48 -1 9 8 25 18 34 11 10 20 29 20 43 0 20 3 22 14
13 10 -8 16 -9 21 -1 3 5 13 10 21 10 10 0 12 -5 8 -12 -5 -9 -3 -9 9 1 9 7
14 18 10 25 -3 6 -3 8 2 4 4 -4 14 -3 22 3 9 9 13 8 13 0 0 -6 4 -11 10 -11 5
0 7 7 4 15 -4 8 0 23 7 33 11 14 11 15 -1 5 -19 -17 -49 -18 -32 -1 9 9 9 15
-1 27 -11 14 -10 14 6 2 9 -7 17 -12 18 -10 0 2 3 15 5 29 3 14 12 32 21 40
14 13 15 13 7 0 -5 -8 -9 -21 -10 -28 -2 -10 1 -11 12 -1 9 7 33 13 55 14 54
2 59 4 59 16 0 6 -9 8 -22 3 -20 -6 -18 -2 10 25 18 18 30 36 26 42 -8 13 15
41 28 33 5 -4 27 11 48 31 35 34 48 32 26 -4 -6 -9 1 -7 17 5 15 10 27 23 27
27 0 5 5 5 11 2 6 -5 3 -13 -10 -22 -12 -8 -21 -19 -21 -25 0 -7 5 -6 14 1 9
7 17 8 20 2 3 -5 0 -12 -6 -14 -8 -4 -9 -6 -2 -6 6 -1 17 6 24 15 8 8 9 14 4
13 -21 -4 -26 2 -14 16 7 8 17 12 23 8 5 -3 7 -1 3 5 -3 6 4 18 16 26 12 9 18
19 14 23 -4 4 -12 0 -17 -10 -6 -9 -15 -15 -20 -11 -6 4 -6 11 2 20 10 12 8
13 -14 5 -17 -7 -28 -7 -32 0 -4 5 -3 9 2 8 4 -1 10 0 13 1 3 1 34 3 70 4 44
2 64 6 62 14 -3 16 63 16 91 0 33 -18 77 -19 77 -2 0 8 10 14 23 14 18 0 19 2
7 10 -10 6 -567 10 -1522 10 l-1508 0 1 -947z m2624 837 c3 -5 1 -10 -4 -10
-6 0 -11 5 -11 10 0 6 2 10 4 10 3 0 8 -4 11 -10z m-148 -61 c-9 -6 -15 -15
-11 -20 4 -6 10 -6 19 1 14 12 45 3 45 -13 0 -14 -30 -47 -43 -47 -6 0 -19 -7
-29 -16 -16 -16 -18 -15 -24 1 -4 9 -2 20 5 25 7 4 11 16 9 27 -3 22 18 53 36
53 6 0 3 -5 -7 -11z m-198 -249 c1 -12 -2 -11 -15 2 -11 11 -14 23 -9 35 7 17
8 17 15 -2 5 -11 9 -27 9 -35z m-119 -112 c0 -19 -16 -5 -17 14 -2 18 0 20 7
8 5 -8 10 -18 10 -22z m-203 -120 c-2 -7 0 -21 5 -30 5 -12 5 -18 -2 -18 -5 0
-10 8 -10 18 0 14 -2 15 -9 2 -6 -8 -7 -18 -5 -22 3 -4 -2 -5 -10 -2 -18 7
-21 20 -6 29 6 4 7 11 4 17 -4 6 -2 8 4 4 6 -3 13 -2 17 4 9 14 18 12 12 -2z
m-180 -193 c-8 -20 -23 -19 -31 1 -5 14 -4 15 9 4 12 -10 15 -9 15 5 0 10 3
16 6 12 4 -3 4 -13 1 -22z m84 2 c-10 -9 -11 -8 -5 6 3 10 9 15 12 12 3 -3 0
-11 -7 -18z m-243 -121 c-2 -23 -28 -26 -28 -4 0 5 5 6 12 2 8 -5 9 0 6 14 -4
12 -2 20 3 17 5 -4 8 -17 7 -29z m-307 -224 c-7 -2 -18 1 -23 6 -8 8 -4 9 13
5 13 -4 18 -8 10 -11z m-291 -162 c0 -5 -5 -10 -11 -10 -5 0 -7 5 -4 10 3 6 8
10 11 10 2 0 4 -4 4 -10z"/>
<path d="M2459 9993 l-24 -28 28 24 c25 23 32 31 24 31 -2 0 -14 -12 -28 -27z"/>
<path d="M3090 10233 c0 -4 13 -15 29 -25 26 -14 30 -14 35 -1 5 12 19 14 64
12 33 -3 58 0 60 6 1 6 -36 11 -93 13 -52 1 -95 -1 -95 -5z"/>
<path d="M3318 10228 c17 -8 26 -8 34 0 9 9 4 12 -22 11 -33 0 -34 -1 -12 -11z"/>
<path d="M6856 10232 c-3 -5 1 -9 9 -9 8 0 15 4 15 9 0 4 -4 8 -9 8 -6 0 -12
-4 -15 -8z"/>
<path d="M6985 10230 c3 -5 8 -10 11 -10 2 0 4 5 4 10 0 6 -5 10 -11 10 -5 0
-7 -4 -4 -10z"/>
<path d="M7140 10231 c0 -6 9 -9 19 -8 11 0 17 5 15 9 -7 11 -34 10 -34 -1z"/>
<path d="M7305 10230 c-3 -5 3 -10 14 -10 12 0 21 5 21 10 0 6 -6 10 -14 10
-8 0 -18 -4 -21 -10z"/>
<path d="M7460 10216 c0 -15 3 -17 12 -8 7 7 20 12 30 12 10 0 18 4 18 8 0 5
-13 9 -30 9 -23 0 -30 -5 -30 -21z"/>
<path d="M7540 10230 c0 -5 14 -10 31 -10 17 0 28 4 24 10 -3 6 -17 10 -31 10
-13 0 -24 -4 -24 -10z"/>
<path d="M7625 10230 c3 -5 14 -10 23 -10 15 0 15 2 2 10 -20 13 -33 13 -25 0z"/>
<path d="M7735 10230 c-3 -5 1 -10 10 -10 9 0 13 5 10 10 -3 6 -8 10 -10 10
-2 0 -7 -4 -10 -10z"/>
<path d="M8499 10223 c-1 -10 0 -24 1 -32 1 -9 -5 -12 -19 -8 -12 3 -21 1 -21
-3 0 -4 -10 -6 -22 -2 -14 3 -19 2 -14 -6 4 -7 1 -12 -9 -12 -9 0 -14 -4 -11
-9 4 -5 -4 -7 -16 -3 -12 3 -19 1 -15 -4 3 -5 -17 -10 -46 -10 -37 0 -51 -4
-49 -13 1 -7 -2 -10 -7 -7 -8 6 -81 -56 -81 -70 0 -3 7 -1 15 6 12 10 15 10
15 -4 0 -21 16 -21 28 0 8 14 10 14 14 -3 4 -13 -1 -19 -13 -21 -11 -1 -26 -2
-34 -3 -8 -1 -15 -12 -15 -24 0 -11 -6 -27 -12 -34 -10 -11 -10 -13 0 -7 7 4
12 1 12 -8 0 -10 6 -13 15 -10 9 4 15 0 15 -10 0 -9 7 -16 16 -16 10 0 14 5
10 15 -5 13 -2 13 19 -1 20 -13 28 -14 40 -4 13 11 12 15 -6 31 -23 20 -18 23
16 10 11 -5 21 -13 21 -20 1 -6 3 -14 4 -18 2 -5 3 -17 4 -28 1 -11 9 -21 20
-23 13 -3 16 0 11 9 -5 7 -4 10 3 5 11 -7 11 -44 -1 -63 -4 -6 4 -20 19 -32
15 -12 23 -25 18 -32 -4 -8 -3 -9 4 -5 7 4 12 1 12 -7 0 -9 10 -13 30 -12 35
2 43 -7 47 -52 1 -21 -2 -33 -10 -33 -6 0 -4 -5 6 -11 15 -9 16 -13 5 -27 -7
-9 0 -6 15 7 l26 24 -4 -22 c-3 -19 -2 -21 10 -11 12 10 18 10 30 0 9 -7 15
-8 15 -2 0 5 10 8 22 4 13 -3 19 -1 15 6 -8 11 11 11 30 -1 14 -9 21 2 17 27
-2 16 0 16 22 -5 13 -12 24 -28 24 -36 0 -7 6 -12 13 -11 6 2 11 -1 10 -7 -1
-5 10 -11 23 -11 13 -1 21 2 18 7 -3 5 2 6 12 2 15 -6 15 -7 -1 -15 -15 -9
-15 -12 7 -36 12 -15 16 -21 7 -14 -14 10 -17 9 -22 -7 -3 -14 -1 -18 9 -14 8
3 14 0 14 -7 0 -10 3 -10 15 0 13 11 18 10 29 -6 11 -14 11 -22 3 -32 -8 -10
-7 -12 4 -10 8 2 13 -3 11 -9 -1 -7 2 -13 8 -13 6 0 10 5 10 11 0 5 5 7 10 4
6 -4 7 -12 3 -18 -4 -7 1 -6 10 2 13 10 15 17 6 27 -6 8 -8 14 -4 14 4 0 14
-8 21 -17 12 -16 13 -16 14 -2 0 9 8 23 18 30 15 12 16 12 5 -2 -16 -20 3 -44
22 -29 8 7 18 3 30 -10 18 -20 18 -21 1 -14 -14 5 -17 3 -14 -7 3 -8 1 -24 -3
-36 -5 -13 -5 -22 -1 -22 19 3 26 -2 13 -10 -9 -6 -4 -8 18 -7 17 0 32 6 32
13 1 7 2 19 3 26 4 21 -4 27 -19 14 -8 -8 -10 -16 -4 -24 7 -7 6 -14 -2 -19
-8 -4 -9 -3 -5 4 4 7 3 12 -3 12 -5 0 -9 9 -8 19 0 11 4 19 7 19 3 0 7 1 10 2
26 10 43 6 47 -11 3 -10 10 -16 16 -12 6 3 7 1 3 -6 -6 -9 -12 -9 -24 1 -10 7
-7 1 6 -13 12 -14 22 -31 22 -37 0 -7 6 -12 13 -12 20 0 50 -37 42 -51 -5 -7
-3 -10 6 -7 8 3 13 16 12 29 -1 15 0 17 3 6 3 -10 10 -14 17 -10 7 4 5 -2 -3
-12 -11 -14 -12 -19 -2 -22 6 -3 12 -12 12 -20 0 -14 3 -13 22 3 14 12 18 13
10 3 -15 -20 -4 -33 15 -17 7 6 16 9 19 6 10 -10 13 -48 3 -48 -5 0 -9 -5 -9
-11 0 -5 5 -7 10 -4 6 3 10 -1 10 -9 0 -8 4 -17 9 -20 10 -7 9 13 -2 31 -4 6
-2 15 4 19 6 3 15 1 19 -6 6 -9 9 -9 15 -1 5 9 10 9 20 1 9 -8 15 -8 20 0 3 5
13 10 22 10 9 0 13 -3 9 -7 -4 -5 -12 -8 -17 -8 -5 0 -9 -3 -9 -7 0 -5 0 -11
0 -14 0 -4 7 0 16 7 13 11 17 10 26 -5 7 -12 13 -14 22 -7 8 7 17 6 26 0 11
-8 12 -12 3 -16 -7 -2 -13 -10 -13 -16 0 -8 4 -7 12 1 16 16 35 15 35 -3 0 -8
-4 -12 -8 -10 -18 11 -26 -21 -13 -55 7 -19 13 -28 13 -20 1 13 3 13 10 1 5
-8 16 -11 25 -8 20 8 20 0 1 -20 -20 -19 -15 -37 11 -41 16 -3 16 -1 4 7 -13
9 -13 12 0 26 14 13 15 11 15 -26 0 -36 1 -38 13 -22 11 15 14 16 22 3 7 -12
12 -12 29 4 20 18 24 7 7 -24 -4 -8 2 -4 15 10 14 17 23 21 26 13 3 -7 9 -13
14 -13 6 0 7 4 4 10 -4 7 2 7 18 1 14 -6 27 -7 30 -4 15 15 -2 -29 -19 -48
-10 -12 -13 -19 -6 -15 7 4 12 2 12 -6 0 -9 10 -13 30 -12 17 1 30 -3 30 -8 0
-6 -7 -8 -15 -5 -8 4 -17 1 -21 -6 -4 -7 -4 -9 1 -5 4 4 14 3 22 -3 7 -6 13
-8 13 -4 0 4 8 1 17 -6 14 -12 16 -12 8 0 -5 10 -4 12 3 7 7 -4 12 -14 12 -23
0 -9 6 -13 15 -9 10 3 15 -1 15 -12 1 -16 1 -16 14 1 20 26 26 21 26 -22 0
-45 -16 -63 -28 -31 l-8 21 -19 -23 c-19 -22 -20 -22 -1 -8 18 14 19 13 13 -2
-5 -13 -1 -18 13 -18 10 0 24 -8 30 -17 8 -13 13 -15 17 -5 4 10 8 10 20 1 11
-10 16 -10 23 0 6 10 9 10 15 1 4 -6 13 -9 21 -6 8 3 14 1 14 -4 0 -6 -4 -10
-10 -10 -5 0 -10 -5 -10 -11 0 -5 5 -7 10 -4 6 3 10 -1 10 -10 0 -13 4 -14 20
-5 11 6 18 15 15 21 -4 5 -11 7 -16 4 -5 -4 -9 -2 -9 3 0 9 23 22 37 22 3 0 2
-8 -1 -17 -6 -14 -3 -14 16 3 23 19 23 19 8 -1 -8 -11 -21 -26 -28 -34 -25
-26 -1 -24 27 3 26 25 29 26 42 9 13 -16 12 -17 -3 -5 -11 9 -18 10 -23 2 -3
-5 1 -13 9 -16 9 -3 16 -10 16 -16 0 -5 -4 -7 -9 -4 -5 3 -11 -3 -14 -14 -3
-11 -1 -18 4 -14 5 3 9 -1 9 -10 0 -8 -3 -16 -7 -19 -5 -2 -2 -2 5 -1 6 2 12
0 12 -4 0 -4 10 -13 23 -21 20 -13 21 -13 8 2 -12 15 -11 17 8 17 11 0 21 5
21 12 0 6 7 3 15 -8 13 -17 14 82 15 839 l0 857 -870 0 c-821 0 -870 -1 -871
-17z m45 -531 c3 -5 -1 -9 -9 -9 -8 0 -12 4 -9 9 3 4 7 8 9 8 2 0 6 -4 9 -8z
m126 0 c0 -5 -7 -9 -15 -9 -8 0 -12 4 -9 9 3 4 9 8 15 8 5 0 9 -4 9 -8z m-130
-42 c0 -5 -5 -10 -11 -10 -5 0 -7 5 -4 10 3 6 8 10 11 10 2 0 4 -4 4 -10z
m419 -142 c1 -5 -4 -8 -10 -8 -5 0 -8 4 -4 9 3 5 1 12 -5 16 -6 4 -7 11 -3 18
6 10 20 -13 22 -35z m-39 -52 c0 -11 -19 -15 -25 -6 -3 5 1 10 9 10 9 0 16 -2
16 -4z m433 -236 c-3 -11 -9 -17 -15 -14 -5 4 -5 11 1 18 7 9 7 17 -2 26 -10
12 -9 12 4 2 10 -8 15 -21 12 -32z m42 -4 c0 -19 -2 -22 -12 -14 -9 7 -10 14
-3 23 5 6 8 15 5 18 -3 4 -2 5 2 2 3 -3 7 -16 8 -29z m157 -158 c-2 -10 -11
-18 -19 -18 -13 0 -13 2 -2 17 8 10 9 14 2 10 -6 -4 -14 -3 -18 3 -3 6 4 9 18
8 18 -2 23 -7 19 -20z m228 -168 c0 -5 -5 -10 -11 -10 -5 0 -7 5 -4 10 3 6 8
10 11 10 2 0 4 -4 4 -10z m237 -140 l0 -29 -19 21 c-20 23 -23 32 -9 23 5 -3
12 -1 16 5 10 16 12 12 12 -20z m48 -60 c3 -5 1 -10 -4 -10 -6 0 -11 5 -11 10
0 6 2 10 4 10 3 0 8 -4 11 -10z"/>
<path d="M2830 10169 c0 -5 5 -7 10 -4 6 3 10 8 10 11 0 2 -4 4 -10 4 -5 0
-10 -5 -10 -11z"/>
<path d="M2956 10172 c-13 -21 19 -38 67 -34 20 2 23 22 3 22 -8 0 -17 6 -20
13 -5 10 -7 10 -12 0 -3 -7 -12 -13 -20 -13 -9 0 -12 5 -9 10 3 6 4 10 1 10
-3 0 -7 -4 -10 -8z"/>
<path d="M7683 10145 c0 -8 4 -12 9 -9 5 3 6 10 3 15 -9 13 -12 11 -12 -6z"/>
<path d="M8170 10070 c-9 -6 -10 -10 -3 -10 6 0 15 5 18 10 8 12 4 12 -15 0z"/>
<path d="M2669 10043 c-13 -16 -12 -17 4 -4 16 13 21 21 13 21 -2 0 -10 -8
-17 -17z"/>
<path d="M8270 9857 c5 -16 6 -26 1 -23 -5 3 -8 -5 -7 -18 1 -22 26 -26 26 -4
0 6 9 8 19 5 14 -3 18 -1 14 9 -3 8 -10 14 -15 14 -5 0 -18 10 -29 23 l-19 22
10 -28z"/>
<path d="M8348 9827 c-3 -30 -1 -33 17 -29 18 5 19 4 5 -14 -10 -14 -10 -16 0
-7 11 10 16 9 26 -5 8 -9 14 -12 14 -6 0 6 -11 21 -24 33 -15 14 -22 30 -19
42 3 10 1 19 -5 19 -5 0 -12 -15 -14 -33z"/>
<path d="M8707 9607 c-3 -8 1 -14 9 -14 8 0 14 6 14 14 0 7 -4 13 -9 13 -5 0
-11 -6 -14 -13z"/>
<path d="M1999 9538 c-10 -33 2 -61 16 -38 5 8 11 7 21 -1 11 -9 14 -8 14 5 0
11 4 14 13 10 8 -5 7 -2 -2 10 -10 12 -17 14 -25 6 -13 -13 -39 -13 -31 0 3 6
4 10 1 10 -3 0 -6 -1 -7 -2z"/>
<path d="M2102 9520 c-28 -27 -29 -39 0 -14 21 19 21 19 16 -3 -4 -13 -1 -26
5 -30 7 -3 9 -3 5 2 -4 4 -3 17 3 27 16 30 -3 42 -29 18z"/>
<path d="M8993 9402 c0 -10 6 -19 13 -19 15 0 11 30 -4 35 -6 2 -10 -5 -9 -16z"/>
<path d="M1884 9378 l-19 -23 23 19 c21 18 27 26 19 26 -2 0 -12 -10 -23 -22z"/>
<path d="M9169 9263 c-13 -16 -12 -17 4 -4 9 7 17 15 17 17 0 8 -8 3 -21 -13z"/>
<path d="M1566 9205 c4 -8 11 -15 16 -15 6 0 5 6 -2 15 -7 8 -14 15 -16 15 -2
0 -1 -7 2 -15z"/>
<path d="M9155 9211 c-3 -5 -2 -12 3 -15 5 -3 9 1 9 9 0 17 -3 19 -12 6z"/>
<path d="M9360 9140 c-9 -16 -8 -22 5 -26 21 -8 39 10 32 30 -9 22 -24 20 -37
-4z"/>
<path d="M1310 9089 c0 -5 5 -7 10 -4 6 3 10 8 10 11 0 2 -4 4 -10 4 -5 0 -10
-5 -10 -11z"/>
<path d="M10109 8628 c0 -2 -2 -11 -4 -21 -3 -15 -1 -16 11 -6 7 6 11 15 8 20
-5 9 -13 12 -15 7z"/>
<path d="M10221 8423 c0 -10 4 -27 9 -38 7 -16 9 -13 9 18 1 20 -3 37 -9 37
-5 0 -10 -8 -9 -17z"/>
<path d="M205 8400 c-3 -5 1 -10 10 -10 9 0 13 5 10 10 -3 6 -8 10 -10 10 -2
0 -7 -4 -10 -10z"/>
<path d="M176 8371 c-4 -7 -5 -15 -2 -18 9 -9 19 4 14 18 -4 11 -6 11 -12 0z"/>
<path d="M6647 8316 c-21 -13 -51 -38 -67 -57 l-28 -34 -29 28 c-32 30 -64 35
-82 13 -9 -11 -20 -12 -44 -5 -45 13 -47 12 -47 -16 0 -22 -4 -25 -36 -25 -29
0 -42 -7 -71 -40 -20 -22 -44 -40 -54 -40 -10 0 -26 -12 -36 -27 -25 -41 -90
-102 -118 -113 -13 -5 -32 -22 -41 -37 -43 -69 -105 -117 -167 -128 -25 -5
-46 -19 -69 -47 -18 -22 -48 -54 -66 -71 -69 -65 -87 -128 -41 -140 27 -7 24
-39 -7 -68 l-26 -24 29 -5 c28 -5 28 -6 25 -67 -2 -36 1 -63 7 -67 7 -4 11 1
11 14 0 48 39 77 67 49 7 -7 15 -6 26 5 42 43 74 1 76 -101 1 -56 7 -86 28
-130 15 -32 31 -89 37 -127 l11 -69 59 -33 c33 -18 65 -43 72 -56 9 -15 13
-66 14 -149 0 -109 2 -128 18 -142 23 -21 50 -22 73 -1 11 10 25 13 39 9 19
-6 21 -12 15 -44 -9 -54 17 -75 83 -66 62 8 80 -8 63 -56 -19 -55 -15 -67 30
-80 48 -15 69 -48 69 -112 0 -36 7 -51 37 -86 l36 -43 64 4 c71 4 75 0 40 -52
-22 -33 -93 -210 -115 -290 -28 -99 -35 -166 -29 -290 8 -162 -3 -206 -87
-360 -63 -116 -94 -190 -141 -335 -33 -102 -65 -155 -112 -187 -42 -28 -108
-52 -121 -44 -7 4 -8 33 -3 98 1 4 15 20 33 37 29 27 31 32 21 64 -8 26 -7 40
3 58 16 29 18 116 3 121 -6 2 -13 16 -14 32 -2 15 -5 29 -7 30 -2 1 -18 13
-35 25 -22 15 -33 30 -33 47 0 36 -25 91 -47 102 -10 5 -36 13 -58 17 -22 5
-43 9 -47 10 -5 2 -15 3 -23 4 -8 0 -17 12 -21 25 -7 30 -24 45 -91 82 l-52
28 -21 -27 c-23 -29 -76 -37 -98 -15 -10 10 -61 16 -147 18 -57 2 -98 -13
-114 -41 -12 -22 -23 -29 -47 -29 -46 0 -87 -24 -108 -65 -11 -20 -37 -45 -57
-57 -45 -25 -48 -33 -56 -115 -5 -50 -10 -66 -28 -77 -17 -11 -24 -29 -29 -68
-9 -70 -8 -106 4 -128 6 -10 10 -36 10 -58 0 -41 17 -64 58 -76 26 -8 28 -19
7 -36 -22 -18 -28 -72 -15 -136 20 -96 65 -171 93 -152 1 1 12 -4 25 -11 28
-15 31 -67 5 -74 -10 -3 -56 -5 -102 -5 -79 0 -86 -2 -135 -35 -28 -20 -63
-39 -78 -42 -31 -8 -108 -71 -108 -88 0 -7 -15 -24 -33 -38 -47 -38 -64 -101
-42 -165 25 -74 49 -107 108 -147 l22 -15 -25 -48 c-35 -66 -47 -72 -107 -46
-107 46 -192 39 -283 -24 l-51 -35 -72 11 c-169 27 -176 26 -243 -19 -34 -23
-68 -41 -77 -41 -34 0 -240 90 -252 110 -9 14 -13 69 -21 290 -3 102 -8 205
-11 230 -12 117 -2 195 36 271 32 66 55 185 45 227 -4 12 1 40 10 62 15 38 15
45 -3 108 -11 37 -29 91 -40 120 -51 128 -61 158 -61 183 0 14 -3 29 -7 32 -3
4 -7 19 -9 34 -2 16 -8 53 -14 83 -5 30 -12 66 -14 80 -8 61 -19 106 -28 117
-6 7 -7 25 -4 39 4 16 1 35 -8 49 -9 13 -18 51 -21 85 -3 34 -8 66 -11 72 -4
6 -8 41 -10 79 -2 38 -9 79 -16 91 -7 13 -14 43 -15 68 -6 92 -12 146 -18 186
-7 39 -5 43 55 112 l61 72 37 -17 c71 -31 137 -52 165 -53 24 0 27 -4 28 -37
1 -21 5 -85 9 -143 8 -104 8 -104 5 34 l-3 138 43 -6 c82 -13 155 44 155 120
0 37 27 64 63 64 42 0 64 63 32 90 -23 19 -18 40 9 40 49 0 72 53 41 94 -19
26 -3 46 37 46 31 0 68 16 80 34 14 21 8 52 -27 123 -20 41 -38 96 -41 127
l-7 56 29 1 c28 0 28 1 6 9 -22 9 -22 11 -8 39 9 16 26 42 40 58 24 29 57 132
70 219 10 68 -10 142 -69 259 -31 61 -55 120 -55 132 0 45 -70 152 -134 204
-33 27 -73 59 -89 72 -15 12 -55 39 -89 59 -33 21 -68 44 -77 51 -9 8 -42 22
-73 31 -31 10 -62 24 -69 32 -7 8 -27 21 -46 29 -18 8 -33 19 -33 24 0 6 -17
11 -39 11 -21 0 -44 6 -50 14 -12 15 -157 20 -176 6 -5 -4 -32 -10 -60 -13
-32 -3 -55 -12 -65 -25 -13 -15 -21 -17 -34 -10 -22 13 -63 -7 -72 -34 -3 -10
-14 -18 -25 -18 -10 0 -33 -13 -51 -30 -17 -16 -40 -30 -50 -30 -11 0 -26 -13
-36 -32 -9 -17 -34 -49 -54 -69 -21 -21 -38 -43 -38 -49 0 -5 -7 -10 -15 -10
-17 0 -35 -30 -35 -58 0 -11 -11 -27 -25 -36 -14 -9 -25 -26 -25 -38 0 -12 -7
-30 -16 -39 -9 -10 -17 -30 -17 -43 1 -14 -6 -31 -13 -37 -8 -6 -14 -21 -14
-34 0 -12 -9 -30 -20 -40 -11 -10 -20 -28 -20 -41 0 -12 -11 -36 -25 -52 -14
-17 -23 -37 -19 -45 3 -8 1 -18 -5 -22 -6 -3 -11 -17 -11 -29 0 -13 -6 -29
-14 -35 -12 -10 -17 -26 -30 -106 -7 -43 -57 -147 -78 -163 -11 -8 -18 -26
-18 -46 0 -20 -8 -40 -20 -51 -11 -10 -23 -34 -26 -54 -4 -20 -15 -47 -25 -60
-11 -13 -19 -34 -19 -46 0 -12 -7 -28 -15 -35 -8 -7 -15 -21 -15 -31 0 -10 -9
-23 -20 -29 -14 -7 -20 -21 -20 -44 0 -25 -5 -35 -20 -39 -14 -4 -20 -14 -20
-34 0 -16 -13 -56 -30 -88 -16 -32 -30 -69 -30 -81 0 -13 -4 -26 -10 -29 -5
-3 -10 -21 -10 -39 0 -20 -8 -40 -20 -51 -12 -11 -20 -31 -20 -50 0 -18 -7
-38 -15 -45 -9 -7 -13 -20 -10 -29 2 -9 -4 -29 -15 -46 -11 -16 -20 -40 -20
-51 0 -12 -7 -27 -15 -34 -8 -7 -15 -25 -15 -41 0 -15 -5 -31 -10 -34 -6 -3
-10 -14 -10 -23 0 -10 -9 -34 -20 -55 -11 -20 -20 -48 -20 -61 0 -14 -4 -27
-9 -30 -4 -3 -11 -23 -15 -44 -3 -22 -12 -45 -20 -51 -8 -6 -17 -28 -21 -49
-4 -20 -13 -44 -20 -52 -7 -8 -16 -26 -20 -40 -6 -25 -30 -81 -46 -110 -24
-44 -49 -105 -49 -120 0 -9 -9 -29 -20 -43 -13 -17 -20 -38 -18 -60 1 -23 -5
-40 -20 -55 -12 -12 -22 -34 -22 -49 0 -16 -7 -37 -15 -47 -8 -11 -15 -31 -15
-44 0 -13 -9 -35 -20 -49 -11 -15 -20 -41 -20 -62 -1 -20 -7 -47 -15 -61 -8
-14 -14 -35 -15 -46 0 -12 -7 -27 -15 -34 -9 -7 -15 -30 -15 -54 -1 -22 -7
-52 -15 -66 -8 -14 -14 -39 -15 -56 0 -17 -6 -37 -14 -43 -8 -7 -16 -35 -19
-64 -2 -29 -9 -65 -15 -82 -6 -16 -16 -50 -22 -75 -7 -25 -20 -63 -29 -85 -9
-22 -15 -43 -14 -47 1 -3 -7 -33 -18 -65 -11 -32 -23 -69 -26 -83 -3 -14 -9
-29 -13 -35 -3 -5 -13 -30 -20 -55 -13 -44 -40 -90 -68 -119 -9 -10 -10 -16
-2 -21 7 -5 6 -15 -5 -36 -8 -16 -15 -35 -15 -41 0 -7 -9 -22 -20 -33 -11 -11
-20 -31 -20 -44 0 -14 -4 -28 -10 -31 -5 -3 -19 -27 -30 -52 -11 -25 -28 -52
-38 -59 -9 -7 -14 -16 -10 -19 4 -4 -9 -39 -29 -79 -21 -39 -36 -75 -35 -79 4
-14 -18 -47 -32 -47 -12 0 -136 -122 -136 -134 0 -9 37 11 45 23 3 5 23 24 45
41 42 33 56 26 19 -9 -12 -11 -19 -26 -16 -35 3 -9 1 -18 -5 -22 -7 -4 -8 -3
-4 4 4 7 3 12 -3 12 -11 0 -61 -100 -67 -136 -2 -13 0 -24 5 -24 13 0 -16 -87
-87 -264 l-16 -39 -9 27 c-9 28 -27 35 -27 10 0 -8 -4 -12 -10 -9 -5 3 -10 0
-10 -7 0 -10 -2 -10 -9 1 -5 8 -16 11 -30 6 -31 -9 -26 -25 8 -25 17 0 33 -5
36 -10 4 -6 10 -8 15 -5 16 10 18 -24 5 -73 -18 -68 -20 -71 -63 -66 -20 2
-75 6 -122 9 -47 3 -105 10 -130 15 -104 24 -189 38 -214 36 -16 -2 -26 2 -26
10 0 8 -6 11 -15 8 -8 -4 -23 0 -32 7 -12 10 -15 10 -9 2 16 -27 -14 -11 -34
17 -21 30 -21 68 0 55 5 -3 10 1 10 10 0 9 4 14 9 11 5 -4 7 3 4 14 -3 11 0
20 6 20 6 0 8 8 4 18 -6 15 -5 16 13 2 18 -14 18 -13 -1 10 -36 45 -100 79
-147 80 -10 0 -18 6 -18 13 0 8 -4 7 -10 -3 -6 -10 -10 -552 -10 -1482 l0
-1468 5120 0 5120 0 -2 1498 -3 1497 -89 3 c-57 2 -106 -2 -140 -12 -63 -18
-126 -26 -270 -31 -73 -3 -132 -11 -167 -23 -30 -11 -83 -20 -118 -21 -36 -1
-70 -6 -76 -11 -6 -5 -31 -11 -55 -12 l-45 -3 -7 80 c-7 70 -5 85 13 123 35
70 36 114 4 167 l-27 46 16 78 c13 63 14 96 6 177 -6 54 -14 223 -19 374 -11
328 -36 679 -57 810 -20 122 -67 312 -100 398 -14 37 -32 87 -41 112 -18 52
-168 355 -231 465 -9 17 -48 86 -86 155 -120 218 -142 246 -343 436 -104 98
-221 199 -261 225 -78 51 -173 87 -320 119 -111 24 -234 83 -299 143 -70 64
-201 258 -220 324 -27 92 -53 232 -53 278 0 28 -6 68 -12 90 -6 22 -10 64 -9
94 1 33 -6 74 -19 108 -11 29 -20 67 -20 82 0 16 -7 35 -17 42 -9 8 -26 37
-38 64 -25 55 -94 123 -169 167 -44 26 -47 30 -41 61 6 29 3 35 -20 45 -14 7
-36 12 -48 12 -36 0 -46 18 -40 71 4 32 1 54 -7 64 -14 17 -56 20 -65 5 -11
-17 -25 -11 -35 15 -11 30 -14 30 -63 1z m-4247 -1569 c-16 -37 -30 -72 -30
-78 0 -6 -9 -22 -20 -36 -11 -14 -20 -34 -20 -44 0 -11 -5 -19 -10 -19 -16 0
0 71 21 99 11 13 19 32 19 42 0 11 5 19 10 19 6 0 20 23 32 51 12 28 24 47 25
42 2 -5 -10 -39 -27 -76z m485 -73 c-13 -33 -52 -94 -60 -94 -8 0 23 69 44 98
32 41 35 40 16 -4z m-153 -56 c-7 -7 -12 -8 -12 -2 0 14 12 26 19 19 2 -3 -1
-11 -7 -17z m-37 -57 c-3 -6 -11 -11 -17 -11 -6 0 -6 6 2 15 14 17 26 13 15
-4z m-385 -25 c0 -8 -5 -18 -11 -22 -14 -8 -33 11 -25 25 10 16 36 13 36 -3z
m480 -11 c-7 -9 -15 -13 -18 -10 -3 2 1 11 8 20 7 9 15 13 18 10 3 -2 -1 -11
-8 -20z m-506 -42 c-6 -22 -43 -72 -44 -58 0 11 37 75 44 75 2 0 2 -8 0 -17z
m-63 -140 c-12 -20 -14 -14 -5 12 4 9 9 14 11 11 3 -2 0 -13 -6 -23z m1140
-439 c6 -27 13 -69 14 -94 2 -25 11 -65 19 -89 9 -24 16 -59 16 -78 0 -18 6
-44 14 -56 16 -25 28 -134 16 -142 -13 -8 -63 112 -59 141 3 28 -12 94 -22 94
-5 0 -9 18 -9 40 0 22 -5 40 -11 40 -6 0 -8 8 -4 20 3 10 1 29 -6 42 -15 28
-13 91 3 118 15 24 16 24 29 -36z m147 -659 c-3 -3 -9 2 -12 12 -6 14 -5 15 5
6 7 -7 10 -15 7 -18z m59 -292 c-3 -10 -5 -4 -5 12 0 17 2 24 5 18 2 -7 2 -21
0 -30z m3511 -101 c33 -44 83 -90 129 -118 76 -47 83 -59 83 -149 0 -45 5
-107 11 -139 7 -40 7 -61 0 -70 -7 -9 -54 -15 -135 -20 -69 -3 -162 -11 -207
-17 -62 -9 -84 -9 -87 0 -5 15 -58 13 -106 -4 -22 -8 -44 -12 -48 -9 -12 8 0
45 22 69 10 11 28 42 40 70 12 27 32 64 45 81 13 16 60 102 104 191 91 180 97
184 149 115z m-3512 -664 c-18 -121 -18 -208 -1 -309 9 -57 23 -119 31 -138 8
-18 14 -60 14 -92 l0 -58 -55 32 c-89 51 -109 70 -97 93 21 40 35 204 29 340
-5 101 -3 134 6 134 7 0 23 9 37 20 37 29 43 25 36 -22z m-111 -120 c4 -51 6
-125 6 -166 -1 -119 -26 -232 -43 -194 -1 4 -23 20 -48 37 -25 16 -59 43 -76
60 l-31 30 19 26 c20 27 37 121 38 207 0 34 5 54 13 56 6 2 32 10 57 18 25 9
48 16 51 17 4 0 10 -40 14 -91z m143 -148 c0 -66 -1 -70 -9 -35 -4 22 -8 74
-7 115 0 66 1 70 9 35 4 -22 8 -74 7 -115z m3537 -35 c66 -8 144 -20 174 -25
30 -6 68 -10 85 -10 17 0 47 -5 66 -10 35 -10 36 -10 48 -90 7 -44 10 -85 7
-90 -3 -6 -24 -10 -47 -10 -22 0 -53 -8 -69 -17 -27 -16 -29 -16 -51 4 -51 46
-92 54 -143 27 -33 -17 -57 -15 -195 16 -47 11 -143 29 -215 40 -309 49 -343
59 -269 79 22 6 45 11 52 11 18 0 108 49 123 66 18 22 55 17 73 -11 15 -22 22
-25 54 -20 85 14 92 17 92 34 0 27 12 33 55 27 22 -3 94 -12 160 -21z m-6248
-1067 c-3 -8 -6 -5 -6 6 -1 11 2 17 5 13 3 -3 4 -12 1 -19z m-28 -95 c-7 -21
-14 -32 -17 -25 -4 14 18 75 25 68 3 -3 -1 -22 -8 -43z m-41 -103 c-5 -17 -15
-33 -21 -37 -7 -4 -8 0 -4 11 4 10 10 29 13 42 3 13 10 22 14 19 5 -3 4 -19
-2 -35z m24 8 c-7 -7 -12 -8 -12 -2 0 14 12 26 19 19 2 -3 -1 -11 -7 -17z"/>
<path d="M30 8212 c0 -5 7 -9 15 -9 8 0 12 4 9 9 -3 4 -9 8 -15 8 -5 0 -9 -4
-9 -8z"/>
<path d="M7 6190 c-8 -31 -9 -127 -1 -156 5 -20 12 -22 77 -20 40 0 78 5 86
10 8 5 41 10 73 11 45 0 61 5 73 20 18 25 19 37 3 55 -11 12 -10 12 3 2 12 -9
19 -9 29 1 12 10 12 9 1 -5 -8 -10 -9 -18 -3 -18 17 0 21 27 8 46 -8 10 -20
15 -29 11 -9 -3 -17 -1 -19 5 -3 7 -35 12 -84 12 -57 1 -82 5 -91 16 -9 12
-14 13 -24 3 -15 -15 -63 -18 -54 -3 3 6 -3 10 -14 10 -10 0 -21 6 -23 12 -3
7 -7 1 -11 -12z"/>
<path d="M385 6090 c3 -5 8 -10 11 -10 2 0 4 5 4 10 0 6 -5 10 -11 10 -5 0 -7
-4 -4 -10z"/>
<path d="M63 4615 c8 -17 8 -18 -4 -9 -43 32 -62 -23 -52 -148 5 -53 8 -64 18
-55 7 7 9 14 4 15 -18 7 -8 24 11 19 10 -3 21 0 23 7 2 6 16 -2 31 -19 25 -27
27 -28 23 -7 -3 12 -1 22 4 22 5 0 11 11 15 25 3 14 10 23 14 20 5 -3 12 -1
15 5 5 8 11 7 22 -1 8 -7 25 -13 38 -14 19 0 22 3 14 17 -12 22 -11 31 1 23 5
-3 10 -2 10 3 0 13 -59 64 -68 58 -7 -4 -10 7 -14 49 -2 13 -48 18 -48 6 0 -5
-7 -12 -16 -15 -13 -5 -14 -3 -6 6 8 10 4 13 -18 13 -25 0 -27 -2 -17 -20z
m-23 -25 c0 -5 -4 -10 -10 -10 -5 0 -10 5 -10 10 0 6 5 10 10 10 6 0 10 -4 10
-10z m0 -30 c0 -5 -5 -10 -11 -10 -5 0 -7 5 -4 10 3 6 8 10 11 10 2 0 4 -4 4
-10z m147 -30 c10 -13 8 -15 -13 -15 -13 1 -30 7 -37 14 -9 10 -9 11 4 6 10
-4 20 -1 24 5 4 6 8 10 9 8 1 -2 7 -10 13 -18z"/>
<path d="M263 4478 c0 -13 1 -18 4 -11 2 7 12 9 21 6 15 -6 15 -5 3 10 -18 23
-27 21 -28 -5z"/>
<path d="M333 4445 c-10 -10 -9 -14 2 -18 7 -3 16 1 19 8 7 20 -6 26 -21 10z"/>
<path d="M285 4430 c3 -6 -1 -10 -10 -10 -15 0 -15 -2 -1 -15 8 -8 19 -15 25
-15 17 0 13 37 -5 44 -8 3 -12 2 -9 -4z"/>
<path d="M130 4400 c-6 -11 -8 -20 -6 -20 3 0 10 9 16 20 6 11 8 20 6 20 -3 0
-10 -9 -16 -20z"/>
<path d="M11 4200 c0 -93 3 -169 7 -168 4 1 18 -4 31 -11 15 -8 27 -9 33 -3 6
6 21 7 38 2 15 -4 34 -4 41 1 8 5 32 9 55 9 31 0 47 7 72 31 28 27 30 33 17
46 -8 8 -15 23 -15 33 0 28 -11 51 -21 44 -5 -3 -9 0 -9 5 0 6 -5 11 -11 11
-5 0 -7 -5 -3 -11 4 -7 1 -10 -7 -7 -8 3 -13 15 -12 27 2 11 -2 21 -8 21 -5 0
-8 -4 -5 -9 3 -5 -1 -14 -9 -21 -11 -10 -18 -9 -30 4 -9 9 -14 20 -11 25 3 4
-3 19 -14 31 -23 27 -26 42 -6 34 8 -3 17 -1 21 5 3 6 1 11 -5 11 -6 0 -8 6
-4 13 4 6 -4 2 -18 -11 -13 -12 -29 -19 -34 -15 -5 5 0 -3 11 -16 l20 -24 -22
12 c-27 14 -36 14 -28 1 9 -14 -8 -12 -24 3 -11 10 -13 9 -8 -5 3 -10 2 -20
-4 -24 -6 -4 -3 -14 8 -26 18 -21 18 -21 -7 -7 -14 8 -27 15 -30 17 -2 2 2 7
10 12 10 6 11 12 4 22 -6 7 -10 34 -10 60 1 27 -2 48 -7 48 -4 0 -7 -76 -6
-170z m75 23 c-7 -7 -26 7 -26 19 0 6 6 6 15 -2 9 -7 13 -15 11 -17z"/>
<path d="M180 4221 c0 -5 5 -13 10 -16 6 -3 10 -2 10 4 0 5 -4 13 -10 16 -5 3
-10 2 -10 -4z"/>
<path d="M6 3893 c-3 -8 -6 -41 -6 -73 0 -70 3 -73 112 -95 48 -11 74 -12 76
-5 2 5 14 10 27 10 23 0 55 23 55 40 0 23 -120 97 -134 83 -3 -4 -6 -2 -6 3 0
6 -17 17 -37 26 -59 25 -81 27 -87 11z"/>
<path d="M432 3671 c-8 -4 -40 -7 -73 -5 -32 2 -59 0 -59 -5 0 -5 -8 -7 -18
-4 -10 2 -27 -6 -41 -21 -14 -14 -21 -26 -17 -26 4 0 -1 -9 -11 -20 -10 -10
-27 -19 -38 -18 -11 0 -48 -6 -82 -15 -42 -10 -64 -12 -72 -4 -18 18 -22 -31
-19 -258 l3 -220 55 -7 c58 -7 154 -16 182 -17 34 -2 45 -27 42 -95 -1 -37 1
-64 6 -61 5 3 7 15 5 26 -4 17 -2 19 11 8 8 -6 12 -20 9 -30 -3 -9 -1 -20 5
-24 5 -3 10 1 10 10 0 12 9 8 33 -14 32 -31 55 -41 41 -20 -3 6 -1 15 7 20 11
6 9 12 -6 29 -11 12 -15 21 -10 20 31 -7 47 1 42 20 -5 20 15 45 26 33 4 -3 7
1 7 10 0 10 5 14 15 11 8 -4 15 -2 15 2 0 5 28 8 62 8 79 -2 129 6 122 17 -5
9 5 11 66 13 41 1 63 13 54 28 -4 6 -2 8 4 4 6 -3 13 -2 16 3 8 12 -25 40 -55
45 -13 2 -25 5 -26 7 -2 1 -6 2 -10 4 -5 1 -21 8 -38 15 -20 10 -78 14 -180
15 -225 3 -255 11 -285 84 -13 31 -12 35 8 52 28 22 28 23 -9 59 -18 16 -28
30 -24 30 5 0 0 6 -10 14 -25 18 -28 69 -3 63 10 -3 16 -1 12 4 -3 5 0 9 6 9
7 0 10 6 7 13 -3 8 7 12 32 14 95 3 141 9 141 16 0 4 -5 7 -12 7 -6 0 -8 3 -5
7 4 3 15 -1 25 -10 22 -20 37 -11 20 12 -8 10 -4 9 10 -3 18 -16 27 -17 46 -8
13 6 34 8 47 5 15 -4 20 -3 15 5 -5 8 -2 10 8 6 9 -4 16 -1 16 6 0 10 3 10 14
1 10 -9 16 -9 21 -1 5 8 11 8 19 1 7 -6 16 -8 20 -4 12 12 54 14 61 3 9 -14
28 -12 22 3 -3 9 9 12 43 11 26 -1 54 -5 61 -8 8 -4 3 2 -10 13 -21 19 -42 26
-65 22 -5 -1 -21 2 -36 8 -20 7 -31 6 -41 -4 -12 -12 -21 -9 -56 15 -23 16
-44 25 -48 22 -3 -4 -3 1 0 10 6 15 -14 29 -39 27 -5 0 -13 5 -17 13 -5 7 -9
8 -9 3 0 -6 -13 -11 -30 -11 -16 -1 -27 2 -24 7 6 11 3 11 -14 0z"/>
<path d="M830 3085 c14 -16 70 -21 70 -6 0 15 -18 23 -25 11 -3 -5 -13 -10
-21 -10 -8 0 -12 5 -9 10 3 6 -1 10 -11 10 -13 0 -14 -3 -4 -15z"/>
<path d="M428 2843 c7 -3 16 -2 19 1 4 3 -2 6 -13 5 -11 0 -14 -3 -6 -6z"/>
</g>
</svg>
